<?xml version="1.0" encoding="UTF-8"?>
<svg id="Layer_2" data-name="Layer 2" xmlns="http://www.w3.org/2000/svg" viewBox="0 0 519 277.07">
  <defs>
    <style>
      .cls-1 {
        fill: #0016a2;
        stroke-width: 0px;
      }

      .cls-2 {
        fill: none;
        stroke: #0016a2;
        stroke-miterlimit: 10;
        stroke-width: 7px;
      }
    </style>
  </defs>
  <g id="Layer_1-2" data-name="Layer 1">
    <g>
      <ellipse class="cls-2" cx="259.5" cy="138.54" rx="256" ry="135.04"/>
      <g>
        <path class="cls-1" d="M222.4,97.27v2.2c-2.94.48-5.55,2.05-7.85,4.7-1.67,1.98-4.15,6.65-7.44,13.98l-27.79,61.65h-1.97l-27.67-64.15c-3.33-7.73-5.56-12.28-6.69-13.62-1.13-1.35-3.26-2.2-6.4-2.56v-2.2h38.68v2.2h-1.31c-3.49,0-5.87.44-7.14,1.31-.91.59-1.37,1.47-1.37,2.62,0,.71.16,1.56.48,2.53s1.39,3.58,3.21,7.82l17.2,40.17,15.95-35.76c1.9-4.33,3.07-7.22,3.51-8.69.44-1.47.66-2.71.66-3.75,0-1.19-.32-2.24-.95-3.16-.64-.91-1.57-1.6-2.8-2.08-1.7-.68-3.97-1.01-6.78-1.01v-2.2h26.48Z"/>
        <path class="cls-1" d="M310.4,97.27v2.2c-2.94.48-5.55,2.05-7.85,4.7-1.67,1.98-4.15,6.65-7.44,13.98l-27.79,61.65h-1.96l-27.67-64.15c-3.33-7.73-5.56-12.28-6.69-13.62-1.13-1.35-3.26-2.2-6.4-2.56v-2.2h38.68v2.2h-1.31c-3.49,0-5.87.44-7.14,1.31-.91.59-1.37,1.47-1.37,2.62,0,.71.16,1.56.48,2.53.32.97,1.39,3.58,3.21,7.82l17.19,40.17,15.95-35.76c1.9-4.33,3.07-7.22,3.51-8.69.43-1.47.65-2.71.65-3.75,0-1.19-.32-2.24-.95-3.16-.63-.91-1.57-1.6-2.8-2.08-1.71-.68-3.97-1.01-6.78-1.01v-2.2h26.48Z"/>
        <path class="cls-1" d="M344.56,141.42v22.37c0,4.36.27,7.11.8,8.24.54,1.13,1.49,2.03,2.86,2.71,1.37.68,3.88,1.01,7.53,1.01v2.2h-41v-2.2c3.73,0,6.26-.35,7.59-1.04,1.33-.69,2.26-1.6,2.8-2.71.54-1.11.8-3.85.8-8.21v-52.36c0-4.36-.27-7.11-.8-8.24-.53-1.13-1.48-2.03-2.83-2.71s-3.87-1.01-7.56-1.01v-2.2h35.16c11.58,0,19.89,2.06,24.93,6.19,5.04,4.13,7.56,9.28,7.56,15.47,0,5.24-1.63,9.72-4.88,13.45s-7.74,6.27-13.45,7.62c-3.85.95-10.35,1.43-19.52,1.43ZM344.56,101.91v34.87c1.31.08,2.3.12,2.98.12,4.84,0,8.57-1.44,11.19-4.31s3.93-7.33,3.93-13.36-1.31-10.37-3.93-13.15-6.53-4.17-11.72-4.17h-2.44Z"/>
      </g>
    </g>
  </g>
</svg>