<?xml version="1.0" encoding="UTF-8"?>
<svg id="Layer_2" data-name="Layer 2" xmlns="http://www.w3.org/2000/svg" viewBox="0 0 95.35 40.67">
  <defs>
    <style>
      .cls-1 {
        fill: none;
        stroke: #0016a2;
        stroke-miterlimit: 10;
      }

      .cls-2 {
        fill: #0d78fd;
      }

      .cls-2, .cls-3 {
        stroke-width: 0px;
      }

      .cls-3 {
        fill: #0016a2;
      }
    </style>
  </defs>
  <g id="Layer_1-2" data-name="Layer 1">
    <g>
      <g>
        <ellipse class="cls-1" cx="47.67" cy="16.5" rx="32" ry="16"/>
        <g>
          <path class="cls-3" d="M43.38,11.73v.25c-.34.06-.64.24-.91.54-.19.23-.48.77-.86,1.62l-3.21,7.13h-.23l-3.2-7.42c-.39-.89-.64-1.42-.77-1.58-.13-.16-.38-.25-.74-.3v-.25h4.47v.25h-.15c-.4,0-.68.05-.83.15-.11.07-.16.17-.16.3,0,.08.02.18.06.29s.16.41.37.9l1.99,4.65,1.84-4.14c.22-.5.36-.84.41-1.01.05-.17.08-.31.08-.43,0-.14-.04-.26-.11-.36-.07-.11-.18-.19-.32-.24-.2-.08-.46-.12-.78-.12v-.25h3.06Z"/>
          <path class="cls-3" d="M53.56,11.73v.25c-.34.06-.64.24-.91.54-.19.23-.48.77-.86,1.62l-3.21,7.13h-.23l-3.2-7.42c-.39-.89-.64-1.42-.77-1.58-.13-.16-.38-.25-.74-.3v-.25h4.47v.25h-.15c-.4,0-.68.05-.83.15-.11.07-.16.17-.16.3,0,.08.02.18.06.29.04.11.16.41.37.9l1.99,4.65,1.84-4.14c.22-.5.36-.84.41-1.01.05-.17.08-.31.08-.43,0-.14-.04-.26-.11-.36-.07-.11-.18-.19-.32-.24-.2-.08-.46-.12-.78-.12v-.25h3.06Z"/>
          <path class="cls-3" d="M57.51,16.83v2.59c0,.5.03.82.09.95.06.13.17.24.33.31.16.08.45.12.87.12v.25h-4.74v-.25c.43,0,.72-.04.88-.12.15-.08.26-.18.32-.31.06-.13.09-.44.09-.95v-6.06c0-.5-.03-.82-.09-.95-.06-.13-.17-.24-.33-.31s-.45-.12-.87-.12v-.25h4.07c1.34,0,2.3.24,2.88.72.58.48.87,1.07.87,1.79,0,.61-.19,1.12-.56,1.56s-.89.73-1.56.88c-.44.11-1.2.17-2.26.17ZM57.51,12.26v4.03c.15,0,.27.01.34.01.56,0,.99-.17,1.29-.5s.45-.85.45-1.55-.15-1.2-.45-1.52-.75-.48-1.36-.48h-.28Z"/>
        </g>
      </g>
      <g>
        <path class="cls-2" d="M1.32,40.61l-1.32-4.04h.56l.63,1.99c.17.55.32,1.04.43,1.51h.01c.11-.47.28-.98.46-1.5l.68-2h.56l-1.45,4.04h-.58Z"/>
        <path class="cls-2" d="M4.3,36.57v4.04h-.52v-4.04h.52Z"/>
        <path class="cls-2" d="M5.21,40.61v-4.04h.57l1.3,2.04c.3.47.53.9.73,1.31h.01c-.05-.55-.06-1.04-.06-1.67v-1.69h.49v4.04h-.53l-1.28-2.05c-.28-.45-.55-.91-.76-1.35h-.02c.03.52.04,1,.04,1.67v1.73h-.49Z"/>
        <path class="cls-2" d="M9.68,36.57v1.69h1.96v-1.69h.53v4.04h-.53v-1.89h-1.96v1.89h-.52v-4.04h.52Z"/>
        <path class="cls-2" d="M15.02,40.61l-1.32-4.04h.56l.63,1.99c.17.55.32,1.04.43,1.51h.01c.11-.47.28-.98.46-1.5l.68-2h.56l-1.45,4.04h-.58Z"/>
        <path class="cls-2" d="M18,36.57v4.04h-.52v-4.04h.52Z"/>
        <path class="cls-2" d="M18.91,40.61v-4.04h.57l1.3,2.04c.3.47.53.9.73,1.31h.01c-.05-.55-.06-1.04-.06-1.67v-1.69h.49v4.04h-.53l-1.28-2.05c-.28-.45-.55-.91-.76-1.35h-.02c.03.52.04,1,.04,1.67v1.73h-.49Z"/>
        <path class="cls-2" d="M23.38,36.57v1.69h1.96v-1.69h.53v4.04h-.53v-1.89h-1.96v1.89h-.52v-4.04h.52Z"/>
        <path class="cls-2" d="M28.04,36.61c.25-.04.58-.08,1-.08.52,0,.89.12,1.13.33.22.19.35.49.35.85s-.11.65-.31.86c-.28.29-.73.44-1.23.44-.16,0-.3,0-.42-.04v1.62h-.52v-3.99ZM28.57,38.56c.11.03.26.04.43.04.63,0,1.01-.31,1.01-.86s-.38-.79-.95-.79c-.23,0-.4.02-.49.04v1.57Z"/>
        <path class="cls-2" d="M31.76,36.57v1.69h1.96v-1.69h.53v4.04h-.53v-1.89h-1.96v1.89h-.52v-4.04h.52Z"/>
        <path class="cls-2" d="M35.8,39.34l-.42,1.27h-.54l1.37-4.04h.63l1.38,4.04h-.56l-.43-1.27h-1.43ZM37.13,38.93l-.4-1.16c-.09-.26-.15-.5-.21-.74h-.01c-.06.24-.13.49-.2.73l-.4,1.17h1.22Z"/>
        <path class="cls-2" d="M39.12,37.01h-1.23v-.44h2.99v.44h-1.24v3.6h-.53v-3.6Z"/>
        <path class="cls-2" d="M46.07,38.55c0,1.39-.85,2.13-1.88,2.13s-1.82-.83-1.82-2.05.8-2.12,1.88-2.12,1.82.84,1.82,2.04ZM42.93,38.61c0,.86.47,1.64,1.29,1.64s1.3-.76,1.3-1.68c0-.8-.42-1.64-1.29-1.64s-1.3.8-1.3,1.68Z"/>
        <path class="cls-2" d="M46.75,40.61v-4.04h.57l1.3,2.04c.3.47.53.9.73,1.31h.01c-.05-.55-.06-1.04-.06-1.67v-1.69h.49v4.04h-.53l-1.28-2.05c-.28-.45-.55-.91-.76-1.35h-.02c.03.52.04,1,.04,1.67v1.73h-.49Z"/>
        <path class="cls-2" d="M52.79,38.71h-1.57v1.46h1.75v.44h-2.27v-4.04h2.18v.44h-1.66v1.28h1.57v.43Z"/>
        <path class="cls-2" d="M58.32,38.83c-.03-.56-.07-1.24-.06-1.75h-.02c-.14.47-.31.98-.51,1.54l-.71,1.96h-.4l-.65-1.92c-.19-.57-.35-1.09-.47-1.57h-.01c-.01.5-.04,1.18-.08,1.79l-.11,1.73h-.5l.28-4.04h.67l.69,1.96c.17.5.31.94.41,1.36h.02c.1-.41.25-.85.43-1.36l.72-1.96h.67l.25,4.04h-.51l-.1-1.78Z"/>
        <path class="cls-2" d="M61.83,38.71h-1.57v1.46h1.75v.44h-2.27v-4.04h2.18v.44h-1.66v1.28h1.57v.43Z"/>
        <path class="cls-2" d="M66.1,38.83c-.03-.56-.07-1.24-.06-1.75h-.02c-.14.47-.31.98-.51,1.54l-.71,1.96h-.4l-.65-1.92c-.19-.57-.35-1.09-.47-1.57h-.01c-.01.5-.04,1.18-.08,1.79l-.11,1.73h-.5l.28-4.04h.67l.69,1.96c.17.5.31.94.41,1.36h.02c.1-.41.25-.85.43-1.36l.72-1.96h.67l.25,4.04h-.51l-.1-1.78Z"/>
        <path class="cls-2" d="M67.52,36.62c.23-.05.59-.08.95-.08.52,0,.86.09,1.11.29.21.16.34.4.34.71,0,.39-.26.73-.68.89h0c.38.11.83.43.83,1.03,0,.35-.14.61-.34.81-.28.26-.74.38-1.4.38-.36,0-.64-.02-.81-.05v-3.98ZM68.04,38.28h.47c.55,0,.88-.29.88-.68,0-.47-.36-.66-.89-.66-.24,0-.38.02-.46.04v1.3ZM68.04,40.21c.1.02.25.02.44.02.54,0,1.04-.2,1.04-.79,0-.55-.47-.78-1.04-.78h-.43v1.54Z"/>
        <path class="cls-2" d="M72.86,38.71h-1.57v1.46h1.75v.44h-2.27v-4.04h2.18v.44h-1.66v1.28h1.57v.43Z"/>
        <path class="cls-2" d="M73.72,36.62c.26-.05.64-.08,1-.08.56,0,.92.1,1.17.33.2.18.32.46.32.77,0,.53-.34.89-.76,1.03v.02c.31.11.5.4.59.82.13.56.23.95.31,1.11h-.54c-.07-.11-.16-.46-.27-.97-.12-.56-.34-.77-.81-.79h-.49v1.75h-.52v-3.99ZM74.24,38.46h.53c.56,0,.91-.31.91-.77,0-.52-.38-.75-.93-.76-.25,0-.43.02-.52.05v1.48Z"/>
        <path class="cls-2" d="M81.05,40.48c-.19.1-.58.19-1.07.19-1.14,0-2-.72-2-2.04s.86-2.12,2.11-2.12c.5,0,.82.11.96.18l-.13.43c-.2-.1-.48-.17-.82-.17-.95,0-1.58.61-1.58,1.67,0,.99.57,1.62,1.55,1.62.32,0,.64-.07.85-.17l.11.41Z"/>
        <path class="cls-2" d="M85.03,38.55c0,1.39-.85,2.13-1.88,2.13s-1.82-.83-1.82-2.05.8-2.12,1.88-2.12,1.82.84,1.82,2.04ZM81.89,38.61c0,.86.47,1.64,1.29,1.64s1.3-.76,1.3-1.68c0-.8-.42-1.64-1.29-1.64s-1.3.8-1.3,1.68Z"/>
        <path class="cls-2" d="M85.36,40.3c0-.22.15-.38.36-.38s.35.16.35.38-.14.38-.36.38c-.21,0-.35-.16-.35-.38Z"/>
        <path class="cls-2" d="M86.75,36.57h.52v3.6h1.73v.44h-2.25v-4.04Z"/>
        <path class="cls-2" d="M89.82,37.01h-1.23v-.44h2.99v.44h-1.24v3.6h-.53v-3.6Z"/>
        <path class="cls-2" d="M92.03,36.62c.32-.05.7-.08,1.11-.08.75,0,1.28.17,1.64.5.36.33.57.8.57,1.45s-.2,1.2-.58,1.57c-.38.38-1,.58-1.79.58-.37,0-.68-.02-.95-.05v-3.98ZM92.55,40.19c.13.02.32.03.53.03,1.12,0,1.72-.62,1.72-1.71,0-.95-.53-1.56-1.64-1.56-.27,0-.47.02-.61.05v3.19Z"/>
      </g>
    </g>
  </g>
</svg>